<svg xmlns="http://www.w3.org/2000/svg" width="320" height="200" viewBox="0 0 320 200" role="img" aria-label="Decision boundary illustration (3D-lite)"><title>Decision boundary</title><desc>Two classes with a boundary on a raised card.</desc><rect x="0" y="0" width="320" height="200" fill="var(--tw-bg,#fff)" stroke="none"/><ellipse cx="170" cy="186" rx="120" ry="10" fill="var(--tw-shadow)" opacity="0.10"/><rect x="18" y="18" width="284" height="164" rx="14" fill="var(--tw-surface)" opacity="0.65" stroke="var(--tw-edge)" stroke-width="2"/><path d="M18 50H302" stroke="var(--tw-surface2)" stroke-width="2" opacity="0.35"/><g fill="none" stroke-linecap="round" stroke-linejoin="round" vector-effect="non-scaling-stroke"><path d="M40 160H280" stroke="var(--tw-muted,currentColor)" stroke-width="1"/><path d="M60 180V20" stroke="var(--tw-muted,currentColor)" stroke-width="1"/><path d="M70 140C120 110 150 90 190 80C230 70 250 60 270 40" stroke="var(--tw-danger,currentColor)" stroke-width="3"/><ellipse cx="92" cy="144" rx="6" ry="3" fill="var(--tw-shadow)" opacity="0.10" stroke="none"/><circle cx="90" cy="140" r="5" fill="var(--tw-accent,currentColor)" stroke="none"/><ellipse cx="112" cy="134" rx="6" ry="3" fill="var(--tw-shadow)" opacity="0.10" stroke="none"/><circle cx="110" cy="130" r="5" fill="var(--tw-accent,currentColor)" stroke="none"/><ellipse cx="132" cy="154" rx="6" ry="3" fill="var(--tw-shadow)" opacity="0.10" stroke="none"/><circle cx="130" cy="150" r="5" fill="var(--tw-accent,currentColor)" stroke="none"/><ellipse cx="152" cy="124" rx="6" ry="3" fill="var(--tw-shadow)" opacity="0.10" stroke="none"/><circle cx="150" cy="120" r="5" fill="var(--tw-accent,currentColor)" stroke="none"/><ellipse cx="172" cy="139" rx="6" ry="3" fill="var(--tw-shadow)" opacity="0.10" stroke="none"/><circle cx="170" cy="135" r="5" fill="var(--tw-accent,currentColor)" stroke="none"/><ellipse cx="222" cy="79" rx="6" ry="3" fill="var(--tw-shadow)" opacity="0.10" stroke="none"/><rect x="215" y="65" width="10" height="10" fill="var(--tw-accent2,currentColor)" stroke="none" transform="rotate(15 220 70)"/><ellipse cx="242" cy="69" rx="6" ry="3" fill="var(--tw-shadow)" opacity="0.10" stroke="none"/><rect x="235" y="55" width="10" height="10" fill="var(--tw-accent2,currentColor)" stroke="none" transform="rotate(15 240 60)"/><ellipse cx="232" cy="99" rx="6" ry="3" fill="var(--tw-shadow)" opacity="0.10" stroke="none"/><rect x="225" y="85" width="10" height="10" fill="var(--tw-accent2,currentColor)" stroke="none" transform="rotate(15 230 90)"/><ellipse cx="252" cy="89" rx="6" ry="3" fill="var(--tw-shadow)" opacity="0.10" stroke="none"/><rect x="245" y="75" width="10" height="10" fill="var(--tw-accent2,currentColor)" stroke="none" transform="rotate(15 250 80)"/><ellipse cx="262" cy="64" rx="6" ry="3" fill="var(--tw-shadow)" opacity="0.10" stroke="none"/><rect x="255" y="50" width="10" height="10" fill="var(--tw-accent2,currentColor)" stroke="none" transform="rotate(15 260 55)"/></g></svg>