<svg xmlns="http://www.w3.org/2000/svg" width="320" height="200" viewBox="0 0 320 200" role="img" aria-label="Gridworld illustration (3D-lite)"><title>Gridworld</title><desc>Gridworld on a raised card with an agent token and goal cell.</desc><rect x="0" y="0" width="320" height="200" fill="var(--tw-bg,#fff)" stroke="none"/><ellipse cx="170" cy="186" rx="120" ry="10" fill="var(--tw-shadow)" opacity="0.10"/><rect x="18" y="18" width="284" height="164" rx="14" fill="var(--tw-surface)" opacity="0.65" stroke="var(--tw-edge)" stroke-width="2"/><path d="M18 50H302" stroke="var(--tw-surface2)" stroke-width="2" opacity="0.35"/><g fill="none" stroke-linecap="round" stroke-linejoin="round" vector-effect="non-scaling-stroke"><path d="M60 40H260" stroke="var(--tw-grid,rgba(0,0,0,.12))" stroke-width="1"/><path d="M60 68H260" stroke="var(--tw-grid,rgba(0,0,0,.12))" stroke-width="1"/><path d="M60 96H260" stroke="var(--tw-grid,rgba(0,0,0,.12))" stroke-width="1"/><path d="M60 124H260" stroke="var(--tw-grid,rgba(0,0,0,.12))" stroke-width="1"/><path d="M60 152H260" stroke="var(--tw-grid,rgba(0,0,0,.12))" stroke-width="1"/><path d="M60 180H260" stroke="var(--tw-grid,rgba(0,0,0,.12))" stroke-width="1"/><path d="M60 40V180" stroke="var(--tw-grid,rgba(0,0,0,.12))" stroke-width="1"/><path d="M100 40V180" stroke="var(--tw-grid,rgba(0,0,0,.12))" stroke-width="1"/><path d="M140 40V180" stroke="var(--tw-grid,rgba(0,0,0,.12))" stroke-width="1"/><path d="M180 40V180" stroke="var(--tw-grid,rgba(0,0,0,.12))" stroke-width="1"/><path d="M220 40V180" stroke="var(--tw-grid,rgba(0,0,0,.12))" stroke-width="1"/><path d="M260 40V180" stroke="var(--tw-grid,rgba(0,0,0,.12))" stroke-width="1"/><rect x="140" y="96" width="40" height="28" fill="none" stroke="var(--tw-accent,currentColor)" stroke-width="3"/><ellipse cx="162" cy="122" rx="10" ry="4" fill="var(--tw-shadow)" opacity="0.14" stroke="none"/><circle cx="160" cy="110" r="8" fill="var(--tw-accent,currentColor)" stroke="none"/><rect x="220" y="48" width="40" height="28" fill="var(--tw-accent2,currentColor)" opacity="0.18" stroke="var(--tw-accent2,currentColor)" stroke-width="2"/><path d="M226 62H254" stroke="var(--tw-accent2,currentColor)" stroke-width="3"/><polygon points="254,62 248,58 248,66" fill="var(--tw-accent2,currentColor)" stroke="none"/></g></svg>