<svg xmlns="http://www.w3.org/2000/svg" width="320" height="200" viewBox="0 0 320 200" role="img" aria-label="Loss surface illustration (3D-lite)"><title>Loss surface</title><desc>Contours on a raised card with a descent path.</desc><rect x="0" y="0" width="320" height="200" fill="var(--tw-bg,#fff)" stroke="none"/><ellipse cx="170" cy="186" rx="120" ry="10" fill="var(--tw-shadow)" opacity="0.10"/><rect x="18" y="18" width="284" height="164" rx="14" fill="var(--tw-surface)" opacity="0.65" stroke="var(--tw-edge)" stroke-width="2"/><path d="M18 50H302" stroke="var(--tw-surface2)" stroke-width="2" opacity="0.35"/><g fill="none" stroke-linecap="round" stroke-linejoin="round" vector-effect="non-scaling-stroke"><ellipse cx="160" cy="110" rx="30" ry="18" fill="none" stroke="var(--tw-muted,currentColor)" stroke-width="1" opacity="0.55"/><ellipse cx="160" cy="110" rx="50" ry="31" fill="none" stroke="var(--tw-muted,currentColor)" stroke-width="1" opacity="0.55"/><ellipse cx="160" cy="110" rx="70" ry="43" fill="none" stroke="var(--tw-muted,currentColor)" stroke-width="1" opacity="0.55"/><ellipse cx="160" cy="110" rx="90" ry="55" fill="none" stroke="var(--tw-muted,currentColor)" stroke-width="1" opacity="0.55"/><ellipse cx="160" cy="110" rx="110" ry="68" fill="none" stroke="var(--tw-muted,currentColor)" stroke-width="1" opacity="0.55"/><ellipse cx="160" cy="110" rx="130" ry="80" fill="none" stroke="var(--tw-muted,currentColor)" stroke-width="1" opacity="0.55"/><path d="M80 60C120 86 150 96 168 116C190 138 214 146 250 162" stroke="var(--tw-accent,currentColor)" stroke-width="3"/><circle cx="80" cy="60" r="5" fill="var(--tw-bg,#fff)" stroke="var(--tw-accent,currentColor)" stroke-width="3"/><circle cx="250" cy="162" r="6" fill="var(--tw-accent,currentColor)" stroke="none"/></g></svg>