<svg xmlns="http://www.w3.org/2000/svg" width="320" height="200" viewBox="0 0 320 200" role="img" aria-label="Neural network 2-2-1 illustration (3D-lite)"><title>Neural network 2-2-1</title><desc>A small neural network on a raised card; nodes have subtle depth.</desc><rect x="0" y="0" width="320" height="200" fill="var(--tw-bg,#fff)" stroke="none"/><ellipse cx="170" cy="186" rx="120" ry="10" fill="var(--tw-shadow)" opacity="0.10"/><rect x="18" y="18" width="284" height="164" rx="14" fill="var(--tw-surface)" opacity="0.65" stroke="var(--tw-edge)" stroke-width="2"/><path d="M18 50H302" stroke="var(--tw-surface2)" stroke-width="2" opacity="0.35"/><g fill="none" stroke-linecap="round" stroke-linejoin="round" vector-effect="non-scaling-stroke"><path d="M82 70L148 70M82 70L148 130M82 130L148 70M82 130L148 130" stroke="var(--tw-muted,currentColor)" stroke-width="2"/><path d="M172 70L238 100M172 130L238 100" stroke="var(--tw-accent,currentColor)" stroke-width="3"/><path d="M250 100H302" stroke="var(--tw-muted,currentColor)" stroke-width="2"/><polygon points="302,100 296,96 296,104" fill="var(--tw-muted,currentColor)" stroke="none"/><ellipse cx="72" cy="74" rx="12" ry="4" fill="var(--tw-shadow)" opacity="0.12" stroke="none"/><circle cx="70" cy="70" r="12" fill="var(--tw-bg,#fff)" stroke="var(--tw-fg,currentColor)" stroke-width="3"/><circle cx="70" cy="68" r="10" fill="var(--tw-surface2)" opacity="0.18" stroke="none"/><ellipse cx="72" cy="134" rx="12" ry="4" fill="var(--tw-shadow)" opacity="0.12" stroke="none"/><circle cx="70" cy="130" r="12" fill="var(--tw-bg,#fff)" stroke="var(--tw-fg,currentColor)" stroke-width="3"/><circle cx="70" cy="128" r="10" fill="var(--tw-surface2)" opacity="0.18" stroke="none"/><ellipse cx="162" cy="74" rx="12" ry="4" fill="var(--tw-shadow)" opacity="0.12" stroke="none"/><circle cx="160" cy="70" r="12" fill="var(--tw-bg,#fff)" stroke="var(--tw-fg,currentColor)" stroke-width="3"/><circle cx="160" cy="68" r="10" fill="var(--tw-surface2)" opacity="0.18" stroke="none"/><ellipse cx="162" cy="134" rx="12" ry="4" fill="var(--tw-shadow)" opacity="0.12" stroke="none"/><circle cx="160" cy="130" r="12" fill="var(--tw-bg,#fff)" stroke="var(--tw-fg,currentColor)" stroke-width="3"/><circle cx="160" cy="128" r="10" fill="var(--tw-surface2)" opacity="0.18" stroke="none"/><ellipse cx="252" cy="104" rx="12" ry="4" fill="var(--tw-shadow)" opacity="0.12" stroke="none"/><circle cx="250" cy="100" r="12" fill="var(--tw-bg,#fff)" stroke="var(--tw-fg,currentColor)" stroke-width="3"/><circle cx="250" cy="98" r="10" fill="var(--tw-surface2)" opacity="0.18" stroke="none"/></g></svg>