<svg xmlns="http://www.w3.org/2000/svg" viewBox="0 0 64 64" role="img" aria-label="Community and Discussion"><defs><filter id="cg" x="-40%" y="-40%" width="180%" height="180%"><feGaussianBlur stdDeviation="1.5" result="b"></feGaussianBlur><feMerge><feMergeNode in="b"></feMergeNode><feMergeNode in="b"></feMergeNode><feMergeNode in="SourceGraphic"></feMergeNode></feMerge></filter></defs><g fill="none" stroke="#33ff33" stroke-width="2" stroke-linecap="round" stroke-linejoin="round" opacity=".3"><path d="M6,14V6H14"></path><path d="M50,6H58V14"></path><path d="M58,50V58H50"></path><path d="M14,58H6V50"></path></g><g filter="url(#cg)" fill="none" stroke="#33ff33" stroke-width="2.6" stroke-linecap="round" stroke-linejoin="round"><path d="M14,11H37Q41,11 41,15V26Q41,30 37,30H23L16,37L18,30H14Q10,30 10,26V15Q10,11 14,11Z"></path><circle cx="19" cy="20.5" r="1.5" fill="#33ff33" stroke="none"></circle><circle cx="26" cy="20.5" r="1.5" fill="#33ff33" stroke="none"></circle><circle cx="33" cy="20.5" r="1.5" fill="#33ff33" stroke="none"></circle><path d="M35,29H52Q56,29 56,33V42Q56,46 52,46H46L50,52L43,46H35Q31,46 31,42V33Q31,29 35,29Z"></path></g></svg>