<svg xmlns="http://www.w3.org/2000/svg" viewBox="0 0 64 64" role="img" aria-label="Ethics and Society"><defs><filter id="cg" x="-40%" y="-40%" width="180%" height="180%"><feGaussianBlur stdDeviation="1.5" result="b"></feGaussianBlur><feMerge><feMergeNode in="b"></feMergeNode><feMergeNode in="b"></feMergeNode><feMergeNode in="SourceGraphic"></feMergeNode></feMerge></filter></defs><g fill="none" stroke="#33ff33" stroke-width="2" stroke-linecap="round" stroke-linejoin="round" opacity=".3"><path d="M6,14V6H14"></path><path d="M50,6H58V14"></path><path d="M58,50V58H50"></path><path d="M14,58H6V50"></path></g><g filter="url(#cg)" fill="none" stroke="#33ff33" stroke-width="2.6" stroke-linecap="round" stroke-linejoin="round"><circle cx="32" cy="12" r="2.4" fill="#33ff33" stroke="none"></circle><path d="M32,13V45"></path><path d="M16,19H48"></path><path d="M25,50H39"></path><path d="M32,45L27,50M32,45L37,50"></path><path d="M16,19L11,31M16,19L21,31"></path><path d="M9,31Q16,38 23,31"></path><path d="M48,19L43,31M48,19L53,31"></path><path d="M41,31Q48,38 55,31"></path></g></svg>