<svg xmlns="http://www.w3.org/2000/svg" viewBox="0 0 120 96" shape-rendering="crispEdges" role="img" aria-label="labs folder">
<defs><filter id="g" x="-40%" y="-40%" width="180%" height="180%"><feDropShadow dx="0" dy="0" stdDeviation="3" flood-color="#33ff33" flood-opacity="0.9"/></filter></defs>
<g filter="url(#g)">
<rect x="10" y="14" width="46" height="12" fill="#0b1f10" stroke="#33ff33" stroke-width="3"/>
<polygon points="52,14 64,26 52,26" fill="#0b1f10"/>
<rect x="10" y="24" width="100" height="60" fill="#0b1f10" stroke="#33ff33" stroke-width="3"/>
<rect x="16" y="30" width="88" height="48" fill="none" stroke="#12a02a" stroke-width="1"/>
<rect x="40" y="28" width="8" height="8" fill="#33ff33"/>
<rect x="56" y="28" width="8" height="8" fill="#33ff33"/>
<rect x="72" y="28" width="8" height="8" fill="#33ff33"/>
<rect x="32" y="36" width="8" height="8" fill="#33ff33"/>
<rect x="40" y="36" width="8" height="8" fill="#33ff33"/>
<rect x="48" y="36" width="8" height="8" fill="#33ff33"/>
<rect x="56" y="36" width="8" height="8" fill="#33ff33"/>
<rect x="64" y="36" width="8" height="8" fill="#33ff33"/>
<rect x="72" y="36" width="8" height="8" fill="#33ff33"/>
<rect x="80" y="36" width="8" height="8" fill="#33ff33"/>
<rect x="32" y="44" width="8" height="8" fill="#33ff33"/>
<rect x="80" y="44" width="8" height="8" fill="#33ff33"/>
<rect x="32" y="52" width="8" height="8" fill="#33ff33"/>
<rect x="80" y="52" width="8" height="8" fill="#33ff33"/>
<rect x="32" y="60" width="8" height="8" fill="#33ff33"/>
<rect x="80" y="60" width="8" height="8" fill="#33ff33"/>
<rect x="32" y="68" width="8" height="8" fill="#33ff33"/>
<rect x="40" y="68" width="8" height="8" fill="#33ff33"/>
<rect x="48" y="68" width="8" height="8" fill="#33ff33"/>
<rect x="56" y="68" width="8" height="8" fill="#33ff33"/>
<rect x="64" y="68" width="8" height="8" fill="#33ff33"/>
<rect x="72" y="68" width="8" height="8" fill="#33ff33"/>
<rect x="80" y="68" width="8" height="8" fill="#33ff33"/>
<rect x="40" y="76" width="8" height="8" fill="#33ff33"/>
<rect x="56" y="76" width="8" height="8" fill="#33ff33"/>
<rect x="72" y="76" width="8" height="8" fill="#33ff33"/>
</g></svg>