<svg xmlns="http://www.w3.org/2000/svg" width="64" height="64" viewBox="0 0 64 64" role="img" aria-label="Q-learning grid icon (3D-lite)"><title>Q-learning grid</title><desc>A grid on a raised card with a highlighted action.</desc><g fill="none" stroke-linecap="round" stroke-linejoin="round" vector-effect="non-scaling-stroke"><ellipse cx="38" cy="54" rx="16" ry="4" fill="var(--tw-shadow)" opacity="0.12" stroke="none"/><rect x="10" y="10" width="44" height="44" rx="6" fill="var(--tw-surface)" opacity="0.85" stroke="var(--tw-edge)" stroke-width="2"/><path d="M12 16H52M12 28H52M12 40H52M16 12V52M28 12V52M40 12V52M52 12V52" stroke="var(--tw-grid,rgba(0,0,0,.12))" stroke-width="1"/><polygon points="28,28 40,28 36,24 24,24" fill="var(--tw-accent,currentColor)" opacity="0.20" stroke="var(--tw-accent,currentColor)" stroke-width="2"/><polygon points="40,28 40,40 36,36 36,24" fill="var(--tw-accent,currentColor)" opacity="0.12" stroke="var(--tw-accent,currentColor)" stroke-width="2"/><rect x="28" y="28" width="12" height="12" fill="none" stroke="var(--tw-accent,currentColor)" stroke-width="2"/><path d="M34 34H44" stroke="var(--tw-accent2,currentColor)" stroke-width="3"/><polygon points="44,34 40,32 40,36" fill="var(--tw-accent2,currentColor)" stroke="none"/></g></svg>